<svg width="48" height="48" viewBox="0 0 48 48" fill="none" xmlns="http://www.w3.org/2000/svg">
<rect x="4" y="4" width="40" height="40" rx="2" fill="#3366FF"/>
<path d="M24 10C16.268 10 10 16.268 10 24C10 31.732 16.268 38 24 38C31.732 38 38 31.732 38 24C38 16.268 31.732 10 24 10ZM24 14C28.4183 14 32 17.5817 32 22V26C32 30.4183 28.4183 34 24 34C19.5817 34 16 30.4183 16 26V22C16 17.5817 19.5817 14 24 14Z" fill="#FFFFFF"/>
<path d="M24 18C21.7909 18 20 19.7909 20 22V26C20 28.2091 21.7909 30 24 30C26.2091 30 28 28.2091 28 26V22C28 19.7909 26.2091 18 24 18Z" fill="#3366FF"/>
<path d="M24 20C22.8954 20 22 20.8954 22 22V26C22 27.1046 22.8954 28 24 28C25.1046 28 26 27.1046 26 26V22C26 20.8954 25.1046 20 24 20Z" fill="#FFFFFF"/>
</svg>